<?xml version="1.0" encoding="UTF-8" standalone="no"?>
<!-- Created with Inkscape (http://www.inkscape.org/) -->

<svg
   xmlns:dc="http://purl.org/dc/elements/1.1/"
   xmlns:cc="http://creativecommons.org/ns#"
   xmlns:rdf="http://www.w3.org/1999/02/22-rdf-syntax-ns#"
   xmlns:svg="http://www.w3.org/2000/svg"
   xmlns="http://www.w3.org/2000/svg"
   xmlns:sodipodi="http://sodipodi.sourceforge.net/DTD/sodipodi-0.dtd"
   xmlns:inkscape="http://www.inkscape.org/namespaces/inkscape"
   width="484.05862"
   height="156.46912"
   viewBox="0 0 484.05863 156.46912"
   id="svg2"
   version="1.1"
   inkscape:version="0.91 r13725"
   sodipodi:docname="l2-green.svg">
  <defs
     id="defs4" />
  <sodipodi:namedview
     id="base"
     pagecolor="#ffffff"
     bordercolor="#666666"
     borderopacity="1.0"
     inkscape:pageopacity="0.0"
     inkscape:pageshadow="2"
     inkscape:zoom="2.1428927"
     inkscape:cx="268.87528"
     inkscape:cy="-25.50442"
     inkscape:document-units="px"
     inkscape:current-layer="layer1"
     showgrid="false"
     units="px"
     fit-margin-top="0"
     fit-margin-left="0"
     fit-margin-right="0"
     fit-margin-bottom="0"
     inkscape:window-width="1680"
     inkscape:window-height="955"
     inkscape:window-x="0"
     inkscape:window-y="32"
     inkscape:window-maximized="1" />
  <metadata
     id="metadata7">
    <rdf:RDF>
      <cc:Work
         rdf:about="">
        <dc:format>image/svg+xml</dc:format>
        <dc:type
           rdf:resource="http://purl.org/dc/dcmitype/StillImage" />
        <dc:title></dc:title>
      </cc:Work>
    </rdf:RDF>
  </metadata>
  <g
     inkscape:label="Layer 1"
     inkscape:groupmode="layer"
     id="layer1"
     transform="translate(1150.0661,490.92742)">
    <path
       style="fill:#228b22;fill-opacity:1"
       d="m -750.25878,-334.72305 c -0.95091,-0.4209 -2.61498,-2.13266 -2.61498,-2.68989 0,-0.20432 -0.14865,-0.52014 -0.33036,-0.70184 -0.57771,-0.57773 -0.024,-2.09435 0.90525,-2.47925 2.36541,-0.97978 3.98271,-6.27719 4.99482,-16.3604 0.0994,-0.99 0.2352,-2.205 0.3018,-2.7 0.0666,-0.495 0.20418,-3.1275 0.30573,-5.85 0.10152,-2.7225 0.33945,-5.32774 0.52869,-5.78943 0.31089,-0.75845 0.45336,-0.82431 1.47708,-0.6827 1.49298,0.20653 3.42399,1.7673 3.69288,2.98484 0.11385,0.51551 0.25365,1.54479 0.31062,2.28729 0.057,0.7425 0.16137,1.72067 0.23199,2.17371 0.0706,0.45304 0,0.90381 -0.15963,1.00171 -0.17898,0.11063 -0.16416,0.32721 0.0392,0.57222 0.23769,0.2864 0.19446,1.44833 -0.15801,4.24829 -0.26685,2.11974 -0.54858,4.86657 -0.62613,6.10407 -0.0775,1.2375 -0.35658,3.33 -0.6201,4.65 -0.26355,1.32 -0.46893,2.6025 -0.45639,2.85 0.0657,1.29731 -1.12434,5.50622 -1.93269,6.83563 -0.62982,1.03583 -3.42609,3.66437 -3.8982,3.66437 -0.19659,0 -0.53724,0.0565 -0.75699,0.1255 -0.21975,0.069 -0.77529,-0.0408 -1.23456,-0.24412 z m -154.44946,-13.17947 c -2.2129,-0.82303 -4.8077,-3.38461 -5.77528,-5.70136 -0.91561,-2.19231 -1.4752,-6.1591 -1.28547,-9.11246 0.16603,-2.58445 1.52099,-10.05758 2.43648,-13.43809 0.22342,-0.825 0.40222,-1.7025 0.39734,-1.95 -0.005,-0.2475 0.21498,-1.4625 0.48859,-2.7 0.2736,-1.2375 0.63884,-2.9925 0.81164,-3.9 0.1728,-0.9075 0.42887,-1.92 0.56903,-2.25 0.44764,-1.05391 1.49215,-6.03636 1.49215,-7.11777 0,-0.59118 0.29798,-1.48535 0.68745,-2.06286 0.59522,-0.8826 0.82644,-1.00524 1.72328,-0.91407 1.45836,0.14825 3.55291,1.4454 3.77725,2.33925 0.16697,0.66524 -0.95,6.27729 -2.64819,13.30545 -0.33888,1.4025 -0.6631,2.82 -0.72049,3.15 -0.56945,3.27447 -0.78724,5.01056 -0.77149,6.15 0.0133,0.96257 -0.0503,1.17781 -0.22171,0.75 -0.1853,-0.46257 -0.34737,-0.11901 -0.7076,1.5 -0.61523,2.76508 -0.58295,12.80614 0.0448,13.95 0.87487,1.59406 1.55517,2.05976 3.29792,2.25761 2.67475,0.30365 4.70643,1.4406 4.34102,2.42927 -0.36269,0.98132 -1.67142,2.53346 -2.49544,2.95958 -1.22416,0.63304 -4.17644,0.82589 -5.44133,0.35545 z m 43.08448,0.16464 c -0.79218,-0.1649 -2.23335,-1.52541 -2.61273,-2.46655 -0.16629,-0.4125 -0.339,-1.3575 -0.38385,-2.1 -0.43098,-7.13816 -0.60834,-8.95492 -0.90303,-9.24961 -0.0968,-0.0968 -1.93701,-0.18148 -4.08936,-0.18819 l -3.91335,-0.0122 -0.94884,-1.17424 c -0.52185,-0.64583 -1.02291,-1.52333 -1.11345,-1.95 -0.18141,-0.85502 0.12648,-2.66482 0.5163,-3.03481 0.13656,-0.12963 2.17335,-0.31338 4.52616,-0.40832 5.07417,-0.20477 5.733,-0.33747 5.91201,-1.19081 0.0741,-0.353 0.3549,-1.85682 0.62409,-3.34182 0.26922,-1.485 0.82548,-4.32 1.23615,-6.3 0.4107,-1.98 0.95088,-5.0175 1.20045,-6.75 0.65871,-4.57296 0.60348,-4.40784 1.58925,-4.75149 1.05468,-0.36767 2.12355,-0.10931 3.66897,0.88681 1.84008,1.18606 1.90746,2.09458 0.55173,7.43995 -0.18486,0.7289 -0.27042,1.49643 -0.19017,1.70562 0.0803,0.20919 0.0452,0.42282 -0.078,0.47473 -0.43566,0.18362 -1.9155,8.52848 -1.69245,9.54391 0.14973,0.68182 0.11427,0.91374 -0.11784,0.7703 -0.18507,-0.11439 -0.33207,-0.0106 -0.33207,0.23447 0,0.34048 0.64425,0.48801 2.85474,0.65374 2.48457,0.18627 3.00969,0.32629 4.05,1.07987 1.254,0.9084 1.4649,1.61379 0.915,3.06017 -0.3558,0.9358 -3.45747,2.00192 -5.82423,2.00192 -1.17978,0 -1.82436,0.16272 -2.33727,0.59002 -0.38952,0.32451 -0.53949,0.59451 -0.33324,0.6 0.26985,0.007 0.37794,0.74606 0.38547,2.63498 0.006,1.44375 0.20559,3.705 0.44409,5.025 0.60582,3.35294 0.57216,3.64926 -0.54513,4.7997 -1.09029,1.12264 -2.13921,1.6084 -3.05943,1.41685 z m -29.43675,-1.06497 c -3.20574,-1.13722 -5.03267,-3.05123 -6.25075,-6.54868 -1.2914,-3.70797 0.19489,-7.62207 4.21395,-11.09729 2.30871,-1.9963 4.21196,-2.76908 6.87355,-2.79087 3.05071,-0.025 5.3631,1.26028 6.78549,3.77146 0.26703,0.47142 0.61974,1.02738 0.78378,1.23547 0.16404,0.20808 0.37725,1.08103 0.47376,1.93988 0.0965,0.85886 0.40686,1.91462 0.68958,2.34614 0.29625,0.4521 0.49452,1.28415 0.46791,1.96345 -0.0273,0.69473 0.0912,1.17886 0.28836,1.17886 0.22992,0 0.21861,0.13975 -0.0362,0.44671 -0.23241,0.28003 -0.29859,0.83126 -0.17739,1.47731 0.17025,0.90753 0.0378,1.22139 -1.10874,2.62829 -1.41852,1.74058 -2.95587,2.87452 -4.94768,3.64934 -1.86721,0.72637 -5.71339,0.63084 -8.05567,-0.20007 z m 4.89628,-5.7525 c 1.91979,-0.57012 2.37684,-1.46001 2.04583,-3.98331 -0.1238,-0.94367 -0.20708,-2.08925 -0.18508,-2.54572 0.0572,-1.18601 -0.75994,-2.62005 -1.49289,-2.62005 -1.42933,0 -3.66516,1.95557 -4.71617,4.125 -0.25979,0.53625 -0.58235,0.975 -0.71679,0.975 -0.13444,0 -0.24443,0.14297 -0.24443,0.31771 0,0.17474 0.10125,0.25595 0.225,0.18048 0.12375,-0.0755 0.26196,0.48324 0.30715,1.24158 0.11348,1.90461 0.76916,2.54406 2.7884,2.71938 0.2588,0.0225 1.15384,-0.16206 1.98898,-0.41007 z m -5.60953,-4.68449 c 0,-0.165 -0.135,-0.21656 -0.3,-0.11459 -0.165,0.10198 -0.3,0.32041 -0.3,0.48541 0,0.165 0.135,0.21657 0.3,0.11459 0.165,-0.10197 0.3,-0.32041 0.3,-0.48541 z m -102.90001,10.25417 c -0.2475,-0.13527 -0.98507,-0.4764 -1.639,-0.75804 -0.654,-0.28166 -1.8203,-1.04054 -2.5917,-1.68641 -1.50363,-1.25894 -1.76933,-1.38038 -1.76933,-0.80886 0,0.5289 -1.4962,1.73455 -2.1526,1.73455 -0.3076,0 -1.0629,-0.31996 -1.6784,-0.71102 -3.1143,-1.9788 -5.8502,-6.59271 -6.961,-11.73898 -0.5014,-2.32328 -0.5038,-2.3269 -1.2556,-1.92452 -1.6744,0.89611 -3.6382,3.76352 -4.644,6.78075 -1.0208,3.06249 -1.1174,3.22677 -2.3401,3.98244 -0.9245,0.5714 -1.1815,0.60444 -2.3288,0.29937 -1.9457,-0.51744 -3.2395,-1.41245 -3.2395,-2.24108 0,-0.38725 -0.2052,-0.90928 -0.4559,-1.16005 -0.4436,-0.44356 -0.5325,-2.27763 -0.1254,-2.58691 0.1086,-0.0825 0.055,-2.22188 -0.1187,-4.75418 -0.2384,-3.47245 -0.2177,-6.49583 0.084,-12.29999 0.2202,-4.23271 0.4209,-8.23583 0.446,-8.89583 0.063,-1.64961 0.3869,-2.45838 1.0558,-2.63331 0.8145,-0.21299 3.1794,0.28141 4.0384,0.84424 0.8415,0.55136 1.7676,1.84718 1.5601,2.18288 -0.496,0.80263 -1.1039,15.73697 -0.6587,16.18222 0.1033,0.10329 0.826,-0.42822 1.6059,-1.18113 3.0991,-2.99162 7.3709,-3.09595 10.2173,-0.24952 1.2213,1.22127 1.9455,2.76421 2.7344,5.82596 0.7612,2.95407 1.2366,4.35978 1.7314,5.12042 0.3332,0.51213 0.3854,0.31033 0.3879,-1.5 0,-3.36876 1.2014,-5.35619 5.32373,-8.84176 1.3425,-1.13506 2.44682,-1.80398 5.4734,-3.31526 1.71422,-0.85597 2.25834,-0.97739 4.5,-1.00422 2.34389,-0.028 2.66502,0.0422 3.97297,0.86948 1.32601,0.83869 2.11429,1.95855 2.95642,4.2 0.38517,1.02522 0.5022,2.25688 0.23038,2.42487 -0.14287,0.0883 -0.25977,0.432 -0.25977,0.76379 0,1.61921 -3.6435,5.31388 -6.72707,6.82153 -2.5129,1.22863 -4.99184,2.32952 -5.79793,2.57483 -0.7437,0.22632 -0.87008,0.7499 -0.315,1.30498 0.56417,0.56417 2.81192,0.42606 6.39548,-0.39297 3.30786,-0.75601 7.57338,-1.03343 7.9128,-0.51462 0.1,0.15277 0.48547,0.43773 0.85672,0.63324 0.95474,0.50278 0.85049,0.91892 -0.6,2.39506 -0.98416,1.00157 -1.82245,1.48532 -3.675,2.12071 -3.63087,1.24532 -5.3454,1.87024 -5.92093,2.15806 -0.65408,0.32711 -5.62292,0.31058 -6.22907,-0.0207 z m 1.32946,-14.98552 c 0.0907,-0.14672 0.5285,-0.35804 0.97293,-0.46958 1.21872,-0.30588 4.32529,-2.59739 4.63867,-3.42164 0.37946,-0.99806 0.11901,-1.13687 -1.01982,-0.54354 -2.98071,1.55292 -5.82566,3.82805 -5.48205,4.38403 0.23931,0.3872 0.66725,0.41158 0.89027,0.0507 z m 176.00289,14.95298 c -1.15779,-0.48148 -2.33355,-1.85544 -2.55546,-2.98622 -0.11331,-0.5775 -0.1953,-3.7743 -0.18219,-7.10401 l 0.024,-6.05401 -0.94104,-1.07178 c -0.96732,-1.10171 -1.52946,-2.75664 -1.27149,-3.74317 0.21228,-0.81173 1.25388,-1.19005 2.24574,-0.81566 0.45393,0.17134 0.8889,0.24798 0.96657,0.1703 0.0777,-0.0777 0.4344,-1.6156 0.79272,-3.41762 0.59181,-2.97638 0.60783,-3.3083 0.17487,-3.62488 -0.26211,-0.19167 -0.39246,-0.43262 -0.28965,-0.53544 0.10284,-0.10282 -0.16221,-0.31969 -0.58896,-0.48194 -1.01691,-0.38663 -1.66893,-1.41974 -1.71798,-2.72211 -0.18282,-4.85317 7.05813,-10.82227 14.03016,-11.56584 2.60613,-0.27794 5.65242,0.70865 7.31184,2.36806 1.50072,1.50073 1.82682,2.12878 2.67315,5.1481 0.56511,2.01618 0.64389,2.843 0.49248,5.17001 -0.24324,3.7386 -0.75549,6.56583 -1.47138,8.12065 -0.32685,0.70986 -0.52644,1.35849 -0.44352,1.44139 0.1497,0.14969 -0.5004,1.39085 -1.82115,3.47688 -1.23804,1.95545 -6.29664,4.89021 -9.0609,5.25671 -0.5775,0.0766 -1.86,0.16062 -2.85,0.18679 l -1.8,0.0476 -0.0938,2.25 c -0.0516,1.2375 0.0578,3.56948 0.24294,5.18218 0.33282,2.89831 0.22005,4.28871 -0.32076,3.95447 -0.15312,-0.0946 -0.2784,0.0219 -0.2784,0.25891 0,0.98039 -1.95987,1.63454 -3.26766,1.09066 z m 8.41638,-19.65274 c 1.41273,-0.34203 4.05588,-2.9947 5.00844,-5.02647 1.52304,-3.24854 2.18058,-7.57259 1.64478,-10.81602 -0.16059,-0.97195 -0.36567,-1.2318 -1.27074,-1.60996 -2.13273,-0.89111 -6.1701,0.047 -6.45285,1.49943 -0.0717,0.36825 -0.35679,1.61454 -0.63354,2.76954 -0.92709,3.86935 -1.62378,8.07931 -1.45095,8.76795 0.0942,0.37522 -0.005,1.56902 -0.22047,2.65287 -0.52746,2.65358 -0.45681,2.69046 3.37533,1.76266 z m -111.48908,19.44714 c -0.96244,-0.24419 -2.47293,-1.54301 -2.81102,-2.41709 -0.64235,-1.6607 -0.94519,-4.19362 -0.83258,-6.96353 0.46055,-11.32838 0.59568,-12.28122 1.82084,-12.83944 0.79312,-0.36137 1.08572,-0.33569 2.60113,0.2283 1.79953,0.66973 2.15133,1.62868 2.10062,5.72592 -0.0241,1.94303 0.0847,3.87059 0.24169,4.28347 0.2174,0.57182 0.18227,0.79029 -0.14746,0.91681 -0.52707,0.20226 -0.61292,3.33825 -0.10005,3.65522 0.21817,0.13484 0.29103,1.10174 0.2115,2.80708 -0.10685,2.29154 -0.2222,2.73368 -0.96841,3.71202 -0.84515,1.10805 -1.00177,1.174 -2.11626,0.89124 z m 192.23822,-0.22524 c -4.09959,-0.74379 -6.77574,-2.44271 -8.36394,-5.30972 -0.82143,-1.48287 -0.88392,-1.81876 -0.88392,-4.75197 0,-2.96082 0.061,-3.28014 0.9843,-5.1557 2.70954,-5.50388 12.18984,-11.26652 16.55298,-10.0618 1.3884,0.38335 3.45012,1.87833 3.87429,2.80927 1.00203,2.19924 0.51228,6.57021 -0.88167,7.86888 -1.90728,1.77691 -4.701,2.44566 -10.21683,2.44566 l -3.85503,0 -0.45888,1.09832 c -0.50109,1.19922 -0.38508,1.90508 0.52545,3.19751 0.99543,1.41291 4.28421,2.32473 8.47539,2.34982 1.485,0.009 3.105,0.13766 3.6,0.28615 0.92757,0.27826 2.27244,2.11072 1.69128,2.30444 -0.16917,0.0564 -0.24546,0.26442 -0.16953,0.46228 0.0759,0.19787 -0.3111,0.60165 -0.86007,0.89729 -0.54897,0.29564 -1.38219,0.86753 -1.85157,1.27086 -0.76887,0.66067 -1.10892,0.73065 -3.43176,0.70626 -1.4181,-0.0149 -3.54681,-0.20279 -4.73049,-0.41755 z m -43.74786,-0.1839 c -3.39753,-0.48666 -6.53751,-1.94381 -8.00304,-3.71391 -0.27666,-0.33416 -0.8775,-1.28257 -1.33524,-2.10757 -0.72288,-1.30297 -0.83361,-1.83495 -0.843,-4.05 -0.0135,-3.20579 0.66798,-4.85237 3.42423,-8.27272 2.57664,-3.19748 3.78969,-4.21458 5.90412,-4.95035 2.82423,-0.98276 5.03103,-0.37917 6.9636,1.90463 1.86594,2.20509 2.73384,4.10509 2.73765,5.99344 0,0.45375 0.11403,0.825 0.25134,0.825 0.13731,0 0.39528,0.43875 0.57324,0.975 0.17796,0.53625 0.612,1.7175 0.96453,2.625 0.71982,1.85297 1.00671,6.579 0.37569,6.18901 -0.13029,-0.0805 -0.50154,0.25605 -0.825,0.74793 -0.60558,0.92089 -3.02727,2.54736 -5.01618,3.36899 -1.53999,0.63619 -3.03882,0.7711 -5.17194,0.46555 z m 1.5,-6.28874 c 2.17941,-0.57013 2.79444,-0.92437 3.16713,-1.82409 0.28692,-0.69266 0.28983,-1.13575 0.0132,-1.99926 -0.19551,-0.61016 -0.46875,-2.38441 -0.60723,-3.94276 -0.21582,-2.42902 -0.3507,-2.9135 -0.94518,-3.39488 -0.66933,-0.54199 -0.93288,-0.54973 -2.22786,-0.0654 -0.6,0.22439 -0.6,0.22439 0,-0.25642 0.903,-0.72363 0.01,-0.60891 -1.36326,0.17509 -1.42287,0.81247 -1.58811,1.3345 -0.21174,0.66893 l 0.975,-0.47148 -0.76026,0.68877 c -1.05021,0.95144 -2.80107,3.19433 -3.39663,4.35114 -0.72621,1.41059 -0.89307,3.24484 -0.34503,3.79288 0.24729,0.24727 0.58314,0.80087 0.7464,1.23022 0.48936,1.28711 2.45265,1.70202 4.95552,1.04728 z m -23.55,5.80127 c -0.2475,-0.0805 -0.9225,-0.69255 -1.5,-1.36008 l -1.05,-1.2137 0.0833,-4.68011 c 0.0832,-4.66945 1.00572,-14.27717 1.55451,-16.18879 0.15927,-0.55478 0.53091,-1.19358 0.82587,-1.41956 0.64605,-0.495 2.04768,-0.26978 3.00867,0.48345 0.36981,0.28987 1.17981,0.61591 1.8,0.72455 0.62019,0.10863 2.41011,0.68617 3.97761,1.28341 2.06352,0.78624 3.11904,1.37815 3.825,2.14498 1.08621,1.17991 1.17816,1.6817 0.53514,2.92111 -0.29436,0.56738 -0.33597,0.91206 -0.12582,1.04195 0.89223,0.55143 -3.61809,0.76239 -5.11836,0.2394 -0.86991,-0.30326 -1.0494,-0.26334 -1.68612,0.375 -0.97248,0.97495 -1.4742,4.12924 -1.47735,9.28824 l -0.003,4.07387 -1.29948,1.25113 c -1.26282,1.21585 -2.0487,1.45865 -3.35052,1.03515 z m 115.275,-0.25934 c -0.53625,-0.23451 -0.975,-0.53554 -0.975,-0.66896 0,-0.13341 -0.28815,-0.55185 -0.64032,-0.92987 -0.61854,-0.66392 -0.63372,-0.85914 -0.44676,-5.7405 0.10647,-2.77926 0.24966,-5.22918 0.31818,-5.44427 0.0686,-0.21508 0.20697,-1.56528 0.30762,-3.00044 l 0.183,-2.60937 -0.98586,-0.16074 c -3.69996,-0.60327 -4.69446,-0.84218 -5.86542,-1.40904 -0.72534,-0.35112 -1.39737,-0.85735 -1.49343,-1.12494 -0.0961,-0.2676 -0.42267,-0.84488 -0.72582,-1.28285 -0.63327,-0.91488 -0.72852,-2.89651 -0.17559,-3.65269 0.52749,-0.72136 2.14224,-0.70768 4.43421,0.0375 2.53938,0.82569 5.44044,1.33121 5.76675,1.00488 0.32046,-0.32045 1.10577,-3.27583 1.17843,-4.43482 0.0297,-0.47223 0.16947,-1.01361 0.3108,-1.20306 0.14133,-0.18944 0.71619,-2.01194 1.27743,-4.05 0.56127,-2.03805 1.21566,-4.25242 1.45425,-4.92083 0.23859,-0.66841 0.73179,-2.42341 1.09599,-3.9 0.36423,-1.47659 0.91305,-2.94432 1.21962,-3.26162 0.49776,-0.51517 0.68688,-0.53811 1.76727,-0.21443 0.66543,0.19937 1.34775,0.62016 1.51632,0.9351 0.16854,0.31494 0.71076,1.01527 1.20489,1.55629 0.89787,0.98302 1.20342,2.42604 0.59355,2.80297 -0.1677,0.10364 -0.24651,0.2829 -0.17517,0.39836 0.0714,0.11546 -0.11493,0.73906 -0.414,1.38577 -0.29907,0.64671 -0.4683,1.37243 -0.37611,1.61272 0.0922,0.24029 -0.0874,0.62343 -0.39927,0.85144 -0.38778,0.28355 -0.56691,0.78349 -0.56691,1.58218 0,0.6422 -0.11532,1.09637 -0.25623,1.00928 -0.14094,-0.0871 -0.22971,0.0926 -0.19728,0.39943 0.10206,0.9656 0,1.34947 -0.30813,1.15903 -0.16614,-0.10268 -0.28884,0.12181 -0.27726,0.50729 0.0325,1.08204 -0.35052,2.78108 -0.65181,2.89147 -0.15012,0.055 -0.27294,0.40928 -0.27294,0.78729 0,0.378 -0.2034,1.26378 -0.45201,1.96838 -0.97476,2.76282 -0.86847,3.00557 1.50201,3.43044 2.51475,0.45072 4.37772,2.11819 4.20519,3.76389 -0.12444,1.18707 -0.13107,1.2 -0.61575,1.2 -0.25329,0 -0.78645,0.21353 -1.18476,0.47451 -0.4926,0.32277 -1.52055,0.49066 -3.21444,0.525 -2.43309,0.0493 -2.49102,0.0677 -2.52363,0.80049 -0.0183,0.4125 -0.1197,1.695 -0.22518,2.85 -0.17466,1.91258 -0.24006,9.57559 -0.0995,11.66199 0.0395,0.58587 -0.13191,0.97026 -0.53502,1.2 -0.32619,0.18591 -0.73119,0.50068 -0.9,0.6995 -0.30213,0.35586 -1.80009,1.01184 -2.20143,0.96404 -0.11301,-0.0135 -0.64422,-0.21635 -1.18047,-0.45086 z m -267.02437,-1.53358 c -2.10343,-0.99972 -2.32886,-1.63585 -2.59257,-7.31558 l -0.21475,-4.62551 -1.29571,-1.35 c -1.39626,-1.45475 -2.3222,-3.29389 -1.95638,-3.8858 0.12471,-0.20178 0.81895,-0.40994 1.54276,-0.46256 0.72381,-0.0526 1.47013,-0.10828 1.65849,-0.12366 0.4814,-0.0393 0.65021,-0.89516 1.17197,-5.94173 0.25227,-2.43994 0.51604,-4.63875 0.58615,-4.88625 0.0701,-0.2475 0.20827,-1.22625 0.307,-2.175 0.14573,-1.40049 0.0964,-1.725 -0.26238,-1.725 -1.07343,0 -2.58926,2.82561 -2.59354,4.83455 -9e-4,0.43149 -0.26725,1.12217 -0.59185,1.53482 -0.32459,0.41266 -0.51473,0.82573 -0.42251,0.91795 0.30553,0.30553 -0.61745,0.0107 -2.07766,-0.66373 -1.51251,-0.69857 -2.00966,-1.45237 -2.00966,-3.04719 0,-0.4865 -0.16408,-1.14728 -0.36462,-1.4684 -0.49797,-0.79738 0.0724,-2.328 1.73563,-4.658 1.94845,-2.72947 5.68828,-5.61689 9.87899,-7.62729 1.74718,-0.83816 2.54418,-1.03223 4.74374,-1.15511 2.36386,-0.13205 2.86217,-0.062 4.70701,0.66181 1.68654,0.66169 2.40893,1.17781 3.95627,2.82655 3.30368,3.52019 4.45087,8.15315 3.39087,13.69409 -0.28408,1.48497 -0.55134,2.96995 -0.59391,3.29995 -0.0426,0.33 -0.10466,0.6 -0.13798,0.6 -0.0333,0 -0.12215,0.3375 -0.1974,0.75 -0.60487,3.31583 -1.96367,5.75777 -4.42275,7.94824 -2.46136,2.19251 -5.19117,3.51673 -7.69585,3.73322 l -1.95,0.16854 0.0951,4.44783 c 0.0911,4.26077 0.0695,4.45453 -0.51506,4.60739 -0.3356,0.0878 -0.68475,0.3945 -0.77589,0.68165 -0.33865,1.06699 -1.41428,1.20708 -3.10353,0.40422 z m 7.01646,-17.60339 c 3.87453,-1.80418 7.05453,-8.63047 6.64695,-14.26853 -0.32896,-4.5504 -2.50423,-6.40295 -6.31105,-5.37474 -1.46078,0.39455 -1.54837,0.47249 -1.47503,1.31251 0.17766,2.03476 0.16861,3.10618 -0.0442,5.2366 -0.12325,1.23395 -0.35955,2.40677 -0.52513,2.60628 -0.17773,0.21415 -0.21434,0.94085 -0.0894,1.77417 0.14521,0.96834 0.11156,1.34958 -0.10721,1.21437 -0.17538,-0.10839 -0.41053,0.0917 -0.52257,0.44474 -0.12147,0.38271 -0.0577,0.73207 0.15804,0.86538 0.35267,0.21796 0.2488,3.38928 -0.19411,5.92652 -0.21313,1.22092 0.29054,1.27463 2.46367,0.2627 z m 234.43291,17.20855 c -4.39263,-0.46685 -6.411,-1.53907 -7.48974,-3.97877 -1.67151,-3.78032 -1.32342,-6.9958 1.00803,-9.31136 0.69561,-0.69086 2.05293,-1.93112 3.01629,-2.75612 0.96336,-0.825 2.23842,-1.92091 2.8335,-2.43535 1.18521,-1.02465 3.02376,-2.01945 4.29807,-2.32557 1.88922,-0.45385 4.80381,1.05339 5.88882,3.04529 0.36777,0.67518 0.33612,0.8073 -0.34467,1.43857 -0.41232,0.38231 -0.79761,0.83897 -0.8562,1.01481 -0.0586,0.17583 -0.86391,0.44296 -1.78956,0.59361 -2.10072,0.3419 -4.36575,1.75335 -6.82998,4.2561 -1.35714,1.37834 -1.83456,2.07975 -1.83456,2.69519 0,1.549 1.51269,1.83288 7.58238,1.42295 5.16399,-0.34876 6.5475,-0.22573 7.43436,0.66114 1.21335,1.21335 0.57369,2.54218 -1.59174,3.30664 -0.61875,0.21843 -1.125,0.48965 -1.125,0.60271 0,0.43702 -2.09337,1.16625 -4.22241,1.47089 -3.486,0.4988 -3.90348,0.5197 -5.97759,0.29927 z m -349.62354,-3.06373 c -2.1378,-1.24339 -2.4277,-2.26024 -2.4185,-8.48252 0,-3.16326 0.2248,-7.26394 0.5314,-9.9 0.2879,-2.475 0.5543,-5.5125 0.592,-6.75 l 0.069,-2.25 -2.85,0.0802 c -3.4592,0.0973 -12.2925,0.91066 -13.95,1.28451 -1.9593,0.44192 -3.277,0.32692 -4.6651,-0.40716 -1.1534,-0.60992 -1.3686,-0.89122 -1.8043,-2.35915 -0.4547,-1.53172 -0.4558,-1.71503 -0.013,-2.26402 0.5893,-0.73013 1.2749,-0.99386 3.0321,-1.16635 0.7425,-0.0729 2.7,-0.32794 4.35,-0.5668 1.65,-0.23886 5.2275,-0.57922 7.95,-0.75635 2.7225,-0.17713 5.625,-0.38345 6.45,-0.45848 0.825,-0.075 4.6725,-0.21898 8.55,-0.31989 6.4897,-0.16889 7.2987,-0.1318 10.1787,0.46666 3.2664,0.67873 5.5472,1.59469 7.0713,2.8398 0.7934,0.64811 0.8556,0.80833 0.525,1.35208 -0.2062,0.33927 -0.375,0.879 -0.375,1.19941 0,0.46045 -0.3414,0.65896 -1.6288,0.94707 -1.3553,0.30329 -2.1259,0.28171 -4.5881,-0.12848 -3.5832,-0.59695 -10.2387,-0.66861 -10.9589,-0.11801 -0.739,0.56502 -1.551,9.90147 -1.5851,18.225 -0.038,9.19071 0,8.84294 -0.8904,9.42326 -1.2577,0.82407 -2.2889,0.85562 -3.5722,0.10926 z m 135.86294,-26.52563 c -2.80712,-1.40184 -3.41604,-6.28804 -0.74143,-5.94955 0.5014,0.0635 1.20952,0.32402 1.57358,0.57902 0.36407,0.255 0.84405,0.46364 1.06662,0.46364 0.81279,0 1.26182,0.85155 1.26182,2.3929 0,1.27538 -0.13458,1.66048 -0.7938,2.27143 -0.9107,0.844 -1.11957,0.86541 -2.36679,0.24256 z m 176.4025,-6.14319 c -0.33447,-0.16263 -0.99456,-0.98315 -1.46688,-1.82338 -0.47232,-0.84023 -1.31196,-2.00819 -1.86591,-2.59548 -0.55395,-0.58728 -0.98214,-1.20887 -0.95154,-1.38131 0.0306,-0.17244 -0.05,-0.76119 -0.17916,-1.30834 -0.49449,-2.09522 1.01184,-3.72708 2.73777,-2.96589 1.65306,0.72905 3.41688,2.05059 3.9861,2.98656 0.84822,1.39478 1.11645,3.52788 0.48786,3.87966 -0.2718,0.1521 -0.49014,0.64907 -0.49014,1.11559 0,0.67704 -1.17831,2.49551 -1.56069,2.40859 -0.0491,-0.0112 -0.36297,-0.15337 -0.69741,-0.316 z m -116.6919,-43.911 c -1.67319,-1.12923 -2.39805,-1.95206 -3.12456,-3.54684 -1.91643,-4.20682 -1.88415,-8.45717 0.12567,-16.55585 0.45042,-1.815 0.99732,-4.11 1.21536,-5.1 0.21801,-0.99 0.93117,-3.83226 1.58478,-6.31614 0.65361,-2.48387 1.28532,-5.45387 1.40382,-6.6 0.25932,-2.50831 0.71865,-3.13386 2.30106,-3.13386 1.79466,0 3.16221,0.7084 3.75096,1.94301 0.57459,1.20491 0.74547,0.25341 -2.15661,12.00699 -1.98852,8.05355 -2.49012,10.32573 -2.87295,13.01411 -0.40713,2.8592 -0.22869,5.98601 0.43083,7.5499 l 0.44874,1.06402 2.21007,-0.28021 c 1.94877,-0.24708 2.3733,-0.20799 3.59094,0.33062 1.83624,0.81226 2.12538,1.87598 0.99615,3.66479 -1.05585,1.67257 -2.82639,2.42651 -6.15426,2.62061 -2.39733,0.13983 -2.62185,0.10024 -3.75,-0.66115 z m 47.85,0.30297 c -5.00067,-0.88508 -8.55915,-2.89839 -10.06494,-5.69447 -0.50514,-0.93796 -0.50721,-1.0319 -0.0333,-1.50578 0.69297,-0.69297 2.52081,-0.63385 5.44827,0.17622 3.42075,0.94656 5.32782,1.05908 6.27363,0.37015 0.41664,-0.30348 0.76176,-0.79492 0.76695,-1.09208 0.0111,-0.64187 -1.84545,-2.41973 -3.20283,-3.06695 -0.52926,-0.25234 -1.04532,-0.59322 -1.14687,-0.7575 -0.10152,-0.16427 -0.951,-0.68712 -1.88772,-1.16189 -0.93675,-0.47477 -2.02758,-1.14675 -2.42406,-1.49329 -0.39651,-0.34654 -0.82998,-0.63007 -0.96333,-0.63007 -0.71013,0 -2.67567,-3.04404 -2.65578,-4.11305 0.005,-0.29532 0.24174,-0.81083 0.525,-1.14557 0.53235,-0.62911 2.42715,-1.64138 3.07236,-1.64138 0.20166,0 1.80126,-0.4869 3.55467,-1.082 5.13276,-1.74204 10.66983,-1.74366 12.30456,-0.004 0.71076,0.7566 1.23864,3.48559 0.67419,3.48559 -0.18741,0 -0.34077,0.19993 -0.34077,0.44429 0,0.68364 -1.83105,0.99542 -3.77373,0.64256 -1.38681,-0.25188 -4.91751,0.27124 -5.70195,0.84482 -0.48246,0.3528 -0.47634,0.41373 0.0952,0.94768 0.33591,0.31386 1.41051,1.01705 2.388,1.56265 3.06168,1.70895 4.62153,3.08225 5.68827,5.008 0.5484,0.99 0.9987,2.23216 1.00068,2.76036 0.008,2.28134 -1.28991,5.45807 -2.69643,6.59727 -0.40734,0.32992 -1.47129,0.54059 -4.05,0.80195 -0.495,0.0502 -1.7775,-0.0641 -2.85,-0.25392 z m -27.70881,-0.59511 c -1.50798,-0.53758 -2.77743,-1.77401 -3.04203,-2.9629 -0.43305,-1.94597 -0.088,-6.02743 0.9252,-10.94438 0.56409,-2.7375 1.02564,-5.40096 1.02564,-5.91878 0,-1.36917 0.84324,-1.99485 2.6694,-1.9807 1.42071,0.011 2.99199,0.73114 3.70101,1.69621 0.3933,0.53533 0.24276,3.0445 -0.33609,5.60131 -1.37484,6.07298 -1.70535,9.49471 -1.08801,11.26408 0.0701,0.20096 -0.004,0.44654 -0.16431,0.54573 -0.16047,0.0992 -0.21648,0.30219 -0.12444,0.45113 0.18894,0.30571 -0.6312,1.74388 -1.31892,2.31275 -0.5586,0.46208 -0.78903,0.45547 -2.24745,-0.0644 z m -140.73098,-0.33094 c -1.94151,-0.399 -3.97563,-1.02284 -5.41022,-1.65925 -0.33,-0.14639 -1.15406,-0.45668 -1.83124,-0.68952 -1.53836,-0.52895 -8.13773,-4.88219 -10.15886,-6.70124 -0.8304,-0.74742 -1.8474,-1.50446 -2.2599,-1.68231 -1.55613,-0.67097 -3.55953,-2.72942 -3.58943,-3.68811 -0.014,-0.45524 1.6325,-1.19714 3.23683,-1.45829 1.227,-0.19974 1.4302,-0.12045 3.74997,1.4636 1.34895,0.92114 3.46513,2.41767 4.70263,3.32563 4.73924,3.4772 9.72959,5.61776 12.75,5.46899 1.076,-0.053 1.25942,-0.18084 1.775,-1.23705 0.40293,-0.82543 0.575,-1.81869 0.575,-3.319 0,-1.8674 -0.14195,-2.42622 -1.11058,-4.37206 -1.92896,-3.87501 -3.49151,-5.7867 -9.17339,-11.22309 -1.91047,-1.82793 -3.6758,-4.22266 -4.55836,-6.18361 -1.42042,-3.15599 -1.0267,-4.45768 2.09726,-6.93368 1.26229,-1.00048 2.36257,-1.90343 2.44507,-2.00654 0.96952,-1.21184 7.14558,-4.39845 11.13876,-5.74717 3.09056,-1.04386 7.14812,-1.43249 8.59204,-0.82294 0.45056,0.1902 1.4444,0.94149 2.20854,1.66952 1.0919,1.04032 1.42547,1.59052 1.55811,2.5701 0.25356,1.87246 -0.33786,2.60638 -1.94427,2.41275 -0.68985,-0.0832 -1.77731,-0.40389 -2.41658,-0.71275 -0.63927,-0.30886 -1.52778,-0.64018 -1.97445,-0.73626 -1.21463,-0.26128 -4.46907,0.52561 -6.57909,1.59074 -1.02627,0.51806 -2.05785,0.94193 -2.2924,0.94193 -0.23456,0 -0.50417,0.2025 -0.59915,0.45 -0.095,0.2475 -0.43247,0.45 -0.75,0.45 -0.31752,0 -0.6583,0.21105 -0.75729,0.46901 -0.099,0.25796 -0.31689,0.3844 -0.48422,0.28099 -0.16733,-0.10342 -0.38522,0.023 -0.48421,0.28098 -0.099,0.25796 -0.43207,0.46902 -0.74018,0.46902 -0.3178,0 -0.75963,0.38566 -1.02111,0.8913 -0.2535,0.49021 -0.74382,1.15487 -1.08961,1.47702 -0.34578,0.32215 -0.546,0.71953 -0.44492,0.88308 0.10107,0.16354 0.0481,0.34263 -0.11763,0.39797 -0.51217,0.17099 0.69154,2.83276 1.83449,4.05663 0.5876,0.6292 2.05002,2.04201 3.24984,3.13959 3.79781,3.4742 6.76296,7.6601 9.35346,13.20426 0.52553,1.12475 0.9244,4.6338 0.74039,6.51359 -0.25236,2.57806 -0.94317,4.49421 -2.12983,5.90765 -0.95239,1.13441 -0.95976,1.13698 -3.47755,1.2124 -1.38773,0.0416 -3.46354,-0.11767 -4.61292,-0.35388 z m 26.23978,-0.13206 c -1.72356,-0.30316 -4.64561,-1.40017 -6.00652,-2.255 -1.89088,-1.18771 -4.49038,-4.77525 -4.49235,-6.19985 -6e-4,-0.44401 -0.15341,-0.90141 -0.33953,-1.01644 -0.22568,-0.13948 -0.2759,-0.80715 -0.15077,-2.00432 0.20488,-1.9602 1.48058,-4.86822 2.88079,-6.56692 1.22572,-1.48701 4.15408,-3.19138 6.46166,-3.76083 1.85154,-0.45692 2.09888,-0.4558 3.59624,0.0162 3.86102,1.21707 8.79542,5.87331 9.57965,9.0396 0.5155,2.08132 0.40841,3.27959 -0.44658,4.99682 -0.46465,0.93325 -0.93049,2.14825 -1.03518,2.7 -0.46556,2.45343 -2.91421,4.52862 -5.78975,4.9067 -0.77421,0.1018 -1.74516,0.22928 -2.15766,0.28329 -0.4125,0.054 -1.3575,-0.009 -2.1,-0.13925 z m 3.00114,-6.52255 c 0.71196,-0.64502 1.00637,-1.28314 1.34953,-2.925 0.73813,-3.53158 0.53129,-4.5174 -1.31633,-6.2739 -1.47422,-1.4015 -3.44509,-1.0981 -5.52259,0.85016 -1.09798,1.02966 -2.29333,3.14365 -2.30348,4.07374 -0.0108,0.99263 0.65692,2.73142 1.37814,3.58855 0.86318,1.02583 2.01641,1.44501 4.08386,1.48439 1.15081,0.0219 1.59303,-0.12947 2.33087,-0.79794 z m 49.04135,6.50685 c -1.5062,-0.43822 -2.75651,-2.00362 -3.09026,-3.86906 -0.37164,-2.07715 -0.44952,-15.91279 -0.0896,-15.91279 0.14706,0 0.34306,-0.28944 0.43558,-0.64319 0.15411,-0.58933 0.31405,-0.62974 1.90998,-0.4826 2.13652,0.197 3.61398,0.99339 3.85251,2.07662 0.097,0.44045 0.21623,3.47795 0.26499,6.75 0.0488,3.27204 0.18931,6.96167 0.31234,8.19917 0.21942,2.207 0.20683,2.26863 -0.65893,3.225 -0.9099,1.00512 -1.37897,1.11004 -2.93663,0.65685 z m -247.79252,-0.57472 c -1.0732,-0.59587 -1.6446,-1.6542 -1.6423,-3.04173 0.012,-7.10673 0.2372,-19.24089 0.3915,-21.1154 0.1087,-1.32 0.3307,-4.3575 0.4935,-6.75 0.1627,-2.3925 0.3854,-5.3625 0.4949,-6.6 0.1095,-1.2375 0.2206,-4.57261 0.2469,-7.41136 0.058,-6.29311 0.1171,-6.41788 2.9252,-6.20844 2.1698,0.16182 2.8662,0.49325 3.2844,1.56304 0.4544,1.16231 0.3335,6.36223 -0.3474,14.93104 -0.3267,4.11164 -0.5946,8.85947 -0.5953,10.55072 l 0,3.075 0.975,-0.006 c 0.5363,-0.003 1.92,-0.14902 3.075,-0.32389 1.155,-0.17487 4.9043,-0.30647 8.3318,-0.29244 6.204,0.0254 6.2329,0.0225 6.4815,-0.65111 0.1373,-0.37214 0.4248,-2.56662 0.6389,-4.87662 0.2141,-2.31 0.4295,-4.5375 0.4787,-4.95 0.3287,-2.75927 0.7425,-6.60416 1.0009,-9.3 0.5602,-5.84561 1.2546,-11.5436 1.5356,-12.6 0.1536,-0.5775 0.28,-1.40032 0.2809,-1.8285 0,-1.07638 0.8801,-1.76791 2.2755,-1.79271 1.8594,-0.0331 2.8886,0.4068 3.4961,1.49414 0.5991,1.07239 0.5978,1.11993 -0.2237,7.97707 -1.6398,13.68845 -1.4728,12.25185 -2.0757,17.85 -0.2398,2.2275 -0.5262,5.08512 -0.6362,6.35027 l -0.2002,2.30027 0.8926,0.46158 c 1.1012,0.56943 1.0913,1.1876 -0.043,2.67031 l -0.8662,1.13242 0.1906,5.01758 c 0.1049,2.75966 0.2713,6.09757 0.3699,7.41757 0.1642,2.19784 0.1189,2.48845 -0.5381,3.45 -0.6556,0.95946 -0.847,1.05134 -2.2195,1.06554 -0.8261,0.009 -1.9297,-0.15899 -2.4525,-0.37232 -1.7863,-0.72887 -1.8924,-1.17024 -1.9892,-8.27116 -0.048,-3.53756 -0.1858,-6.59086 -0.3059,-6.78509 -0.4108,-0.6648 -10.5792,-0.12959 -16.6032,0.87391 l -2.1804,0.36321 0.1455,1.38796 c 0.08,0.76337 0.2232,2.46795 0.3183,3.78795 0.095,1.32 0.3206,3.21788 0.5012,4.21752 0.2996,1.65835 0.2677,1.94965 -0.3638,3.32628 -0.5312,1.15792 -0.9497,1.62034 -1.7998,1.98859 -1.3773,0.59672 -2.5736,0.57265 -3.7406,-0.0753 z m 221.58747,-0.46746 c -5.00046,-0.63021 -7.23026,-1.83931 -9.22792,-5.00381 -0.78926,-1.25027 -0.98631,-3.12788 -0.46754,-4.45493 0.44216,-1.13107 3.67936,-4.35714 7.16482,-7.14017 1.68124,-1.34242 3.1454,-2.44076 3.25369,-2.44076 0.10829,0 0.58006,-0.27284 1.04838,-0.60632 1.46704,-1.04462 5.18723,-2.15702 7.02799,-2.10148 0.48776,0.0147 1.09526,0.20902 1.35,0.43179 0.25473,0.22277 0.73314,0.4919 1.06314,0.59807 0.33,0.10616 0.83857,0.52185 1.13016,0.92374 0.66777,0.92041 1.02428,2.5542 0.55734,2.5542 -0.18562,0 -0.3375,0.18597 -0.3375,0.41327 0,0.22729 -0.19171,0.57237 -0.42603,0.76683 -0.45101,0.37431 -0.65242,0.38631 -3.02397,0.18016 -1.84132,-0.16006 -2.76878,0.17481 -5.16852,1.86619 -1.02768,0.72433 -2.00643,1.23173 -2.175,1.12755 -0.16856,-0.10418 -0.30648,0.0211 -0.30648,0.27829 0,0.25724 -0.12188,0.46771 -0.27084,0.46771 -0.14896,0 -1.16146,0.89942 -2.25,1.99871 -2.3602,2.38354 -2.63077,3.4506 -1.00416,3.96023 1.21527,0.38075 4.17434,0.61541 9.975,0.79103 6.5185,0.19736 8.12677,0.90959 7.51929,3.32997 -0.0992,0.39541 -0.73477,1.08576 -1.41229,1.53413 -1.19359,0.78988 -1.37751,0.81739 -5.91943,0.88545 -2.73408,0.041 -6.10971,-0.10899 -8.10013,-0.35985 z m 0.86256,-12.77418 c 0,-0.40791 -0.13633,-0.32993 -0.9227,0.52777 l -0.7273,0.79326 0.825,-0.52776 c 0.45375,-0.29027 0.825,-0.64724 0.825,-0.79327 z m -151.80003,12.61356 c 0,-0.15348 -0.254,-0.27905 -0.5644,-0.27905 -0.6136,0 -2.1356,-1.78524 -2.1356,-2.50499 0,-0.24476 -0.1475,-0.49417 -0.3277,-0.55425 -0.1803,-0.0601 -0.3685,-0.57759 -0.4184,-1.15 -0.05,-0.57242 -0.2335,-2.66076 -0.4083,-4.64076 -0.1747,-1.98 -0.3815,-6.26071 -0.4595,-9.5127 -0.1345,-5.60879 -0.1104,-5.9526 0.4689,-6.68908 0.5414,-0.68828 0.8003,-0.76872 2.2814,-0.70881 3.3156,0.13415 3.7897,0.92728 3.6934,6.17915 -0.034,1.85979 -0.01,3.38144 0.056,3.38144 0.065,0 0.7292,-0.78698 1.4761,-1.74884 1.7892,-2.30393 3.2907,-3.06306 5.7064,-2.88509 2.0734,0.15276 2.9843,0.68717 5.1945,3.04743 l 1.5126,1.61541 1.2804,-1.36608 c 1.6145,-1.72261 2.4468,-2.14528 4.6943,-2.38397 3.7122,-0.39425 5.8192,0.97055 6.5606,4.24962 0.8033,3.55302 1.6398,8.83737 1.8492,11.68163 0.2017,2.73938 0.197,2.76587 -0.6221,3.525 -1.5723,1.45718 -4.484,0.73968 -5.7837,-1.42524 -0.6643,-1.10644 -0.9024,-2.37982 -1.0865,-5.81164 -0.072,-1.34848 -0.2229,-2.93824 -0.3344,-3.53281 -0.1746,-0.93065 -0.2671,-1.02779 -0.6647,-0.69823 -0.7434,0.61612 -2.7886,5.09654 -2.5991,5.69375 0.098,0.31011 0.021,0.53906 -0.1816,0.53906 -0.2273,0 -0.2852,0.26911 -0.1628,0.75658 0.133,0.53031 0.053,0.80908 -0.2675,0.9321 -0.2516,0.0965 -0.4574,0.38607 -0.4574,0.64341 0,0.25735 -0.082,0.38604 -0.1819,0.28597 -0.1001,-0.10006 -0.4631,0.0799 -0.8066,0.4 -0.6645,0.61907 -2.4442,0.79533 -2.7664,0.27398 -0.1047,-0.16938 -0.3489,-0.28102 -0.5427,-0.2481 -0.792,0.13454 -1.9458,-0.73589 -2.1182,-1.59801 -0.097,-0.48713 -0.3056,-0.80633 -0.4625,-0.70933 -0.157,0.097 -0.2881,-0.0628 -0.2914,-0.35512 -0.031,-2.78083 -0.5932,-6.67612 -1.0826,-7.50461 -0.544,-0.92093 -0.5918,-0.93952 -1.1417,-0.44403 -0.9098,0.81993 -2.5388,4.64529 -3.3926,7.96681 -0.4313,1.67769 -0.973,3.41931 -1.2038,3.87027 -0.4003,0.78185 -2.1051,1.93461 -2.4101,1.62962 -0.08,-0.0796 -0.5395,-0.0315 -1.0221,0.10693 -0.5214,0.14954 -0.8774,0.13841 -0.8774,-0.0274 z m 196.80004,-1.21663 c -1.26813,-0.34236 -2.41012,-0.8801 -2.94643,-1.38742 -0.21804,-0.20625 -0.55554,-0.38027 -0.75,-0.3867 -0.46014,-0.0152 -2.18977,-2.37348 -2.9192,-3.98016 -1.02213,-2.25138 -0.60782,-5.10802 1.24582,-8.58994 1.18006,-2.21664 3.55473,-4.2891 5.47226,-4.77582 0.9969,-0.25304 1.53819,-0.20031 3.0003,0.29223 0.98115,0.33053 2.24376,0.9517 2.80581,1.38038 0.59394,0.45303 1.66908,0.88174 2.5674,1.02374 1.10283,0.17433 1.79781,0.49658 2.42622,1.12498 0.83955,0.83957 0.8907,1.04258 1.09557,4.35013 0.2337,3.77246 0.24804,3.80715 2.45352,5.93182 1.25313,1.20724 1.44873,1.55618 1.44873,2.58454 0,1.58608 -0.92394,2.7698 -2.16198,2.7698 -2.21964,0 -3.74433,-0.90974 -6.19344,-3.69543 -0.84228,-0.95801 -1.06779,-0.85975 -1.82088,0.79337 -0.9654,2.11919 -1.89198,2.90632 -3.38439,2.875 -0.70911,-0.0149 -1.76181,-0.15462 -2.33931,-0.31052 z m 1.20105,-7.96419 c 0.23505,-0.46653 0.68316,-1.22726 0.99588,-1.69051 0.31269,-0.46325 0.48747,-0.92333 0.38841,-1.02239 -0.0991,-0.0991 -0.0468,-0.34081 0.11619,-0.53719 0.2049,-0.24689 0.11223,-0.52368 -0.30027,-0.89702 -0.5802,-0.52506 -0.62478,-0.51011 -1.61782,0.54282 -0.76593,0.81212 -1.0477,1.40435 -1.12731,2.3694 -0.16914,2.05043 -0.007,2.68515 0.60153,2.35931 0.28385,-0.15191 0.70837,-0.6579 0.94339,-1.12442 z m -156.60109,6.99725 c -4.4216,-1.45487 -7.8,-5.79488 -7.8,-10.02028 0,-3.1633 1.536,-6.28413 3.5272,-7.16658 3.7983,-1.68329 6.2628,-2.00383 8.7494,-1.13797 2.2852,0.79573 4.1769,2.43099 4.8348,4.17935 0.1863,0.495 0.4567,1.12533 0.601,1.40073 0.1443,0.27541 0.3531,1.70186 0.4639,3.16989 0.1875,2.48415 0.152,2.7455 -0.5124,3.77055 -0.3926,0.60577 -0.9178,1.10307 -1.167,1.10511 -0.6107,0.005 -1.7836,1.18153 -2.6969,2.70511 -1.1185,1.86593 -3.7408,2.73745 -6,1.99409 z m 0.965,-7.17048 c 0.2386,-0.37125 0.6762,-1.4175 0.9723,-2.325 0.2961,-0.9075 0.6425,-1.92988 0.7699,-2.27195 0.301,-0.80825 -0.4868,-1.34682 -1.4492,-0.99079 -1.2453,0.46067 -2.2814,4.16106 -1.5485,5.53051 0.4849,0.90597 0.7034,0.91593 1.2555,0.0572 z m -66.815,5.6575 c -4.1494,-1.36468 -5.6343,-2.58379 -7.5306,-6.1825 -0.4782,-0.9075 -0.9757,-1.72862 -1.1057,-1.8247 -0.3566,-0.26362 -0.3101,-5.02567 0.065,-6.66267 0.4102,-1.79 1.3401,-3.25613 3.2158,-5.0704 1.5693,-1.51788 3.0099,-2.2381 6.1732,-3.0863 1.7838,-0.47832 2.2311,-0.49572 3.8596,-0.15015 1.9835,0.42093 4.9372,2.33998 5.6222,3.65284 0.72,1.37969 2.0356,2.97879 2.7406,3.33106 0.4575,0.22855 0.9153,0.90885 1.2519,1.86032 0.4569,1.29115 0.5059,2.1683 0.3523,6.3 -0.2192,5.89318 -0.524,6.71886 -2.8865,7.81884 -1.4102,0.65656 -1.9416,0.7243 -5.6078,0.7148 -3.4003,-0.009 -4.3869,-0.12128 -6.15,-0.70114 z m 6.6,-4.6121 c 0.4852,-0.3565 1.0806,-1.5704 0.7702,-1.5704 -0.5289,0 -0.8189,-2.47612 -0.4248,-3.62728 0.3003,-0.87725 0.2856,-1.49 -0.079,-3.3 -0.6862,-3.40605 -2.0495,-4.88388 -4.4716,-4.84727 -3.8255,0.0578 -6.8564,5.05559 -5.3918,8.89066 0.7787,2.03907 2.6194,3.79056 4.6211,4.39717 1.0002,0.30313 4.585,0.34428 4.9759,0.0571 z m 196.71088,-23.57228 c -0.90945,-0.47602 -1.55007,-1.13161 -2.175,-2.22582 -1.07805,-1.88759 -1.10724,-2.57817 -0.14948,-3.53594 0.90464,-0.90464 2.2876,-0.96355 4.11376,-0.17524 1.77199,0.76493 2.33686,1.49034 2.54788,3.27202 0.14931,1.26073 0.0687,1.671 -0.47969,2.44114 -0.8122,1.14063 -1.9768,1.20821 -3.85747,0.22384 z m 64.13916,0.0796 c 0,-0.11272 -0.3846,-0.36426 -0.85467,-0.55896 -0.96288,-0.39884 -2.14533,-2.26962 -2.14533,-3.39417 0,-0.40903 0.26193,-1.07669 0.58209,-1.48369 0.46251,-0.588 0.83283,-0.73125 1.80303,-0.69742 0.67152,0.0234 1.38159,0.20321 1.57791,0.39954 0.19635,0.19633 0.64395,0.35696 0.99468,0.35696 1.01142,0 2.00244,1.2898 2.10039,2.73368 0.0719,1.05956 -0.0558,1.41017 -0.77571,2.13008 -0.70236,0.70237 -1.08564,0.84855 -2.07207,0.79035 -0.66567,-0.0393 -1.21032,-0.16364 -1.21032,-0.27637 z"
       id="path4325"
       inkscape:connector-curvature="0" />
  </g>
</svg>
