<?xml version="1.0" encoding="UTF-8" standalone="no"?>
<!-- Created with Inkscape (http://www.inkscape.org/) -->

<svg
   xmlns:dc="http://purl.org/dc/elements/1.1/"
   xmlns:cc="http://creativecommons.org/ns#"
   xmlns:rdf="http://www.w3.org/1999/02/22-rdf-syntax-ns#"
   xmlns:svg="http://www.w3.org/2000/svg"
   xmlns="http://www.w3.org/2000/svg"
   xmlns:sodipodi="http://sodipodi.sourceforge.net/DTD/sodipodi-0.dtd"
   xmlns:inkscape="http://www.inkscape.org/namespaces/inkscape"
   width="541.32434"
   height="46.69492"
   viewBox="0 0 541.32435 46.69492"
   id="svg2"
   version="1.1"
   inkscape:version="0.91 r13725"
   sodipodi:docname="l1-green.svg">
  <defs
     id="defs4" />
  <sodipodi:namedview
     id="base"
     pagecolor="#ffffff"
     bordercolor="#666666"
     borderopacity="1.0"
     inkscape:pageopacity="0.0"
     inkscape:pageshadow="2"
     inkscape:zoom="2.1428927"
     inkscape:cx="270.66217"
     inkscape:cy="23.34746"
     inkscape:document-units="px"
     inkscape:current-layer="layer1"
     showgrid="false"
     units="px"
     fit-margin-top="0"
     fit-margin-left="0"
     fit-margin-right="0"
     fit-margin-bottom="0"
     inkscape:window-width="1680"
     inkscape:window-height="955"
     inkscape:window-x="0"
     inkscape:window-y="32"
     inkscape:window-maximized="1" />
  <metadata
     id="metadata7">
    <rdf:RDF>
      <cc:Work
         rdf:about="">
        <dc:format>image/svg+xml</dc:format>
        <dc:type
           rdf:resource="http://purl.org/dc/dcmitype/StillImage" />
        <dc:title></dc:title>
      </cc:Work>
    </rdf:RDF>
  </metadata>
  <g
     inkscape:label="Layer 1"
     inkscape:groupmode="layer"
     id="layer1"
     transform="translate(1151.853,332.30134)">
    <path
       style="fill:#228b22;fill-opacity:1"
       d="m -673.12852,-285.82574 c -1.38072,-0.65198 -1.90152,-1.36492 -2.09418,-2.86673 -0.1038,-0.80912 -0.0414,-1.89414 0.13992,-2.43263 l 0.32727,-0.97204 0.99522,0.92967 c 0.54738,0.51133 1.09569,0.92968 1.21848,0.92968 0.68463,0 2.68143,-1.88318 3.09636,-2.92019 0.83607,-2.08954 1.57875,-7.88035 1.87629,-14.62981 0.18849,-4.27561 0.14301,-4.03886 0.86565,-4.50389 0.83085,-0.53466 2.06628,-0.25684 2.92629,0.65806 0.66129,0.70347 0.6987,0.96294 0.6987,4.84456 0,6.29319 -0.47409,10.40063 -1.67316,14.49553 -0.32115,1.09685 -0.78483,2.07136 -1.03038,2.16559 -0.24555,0.0942 -0.44646,0.3677 -0.44646,0.60772 0,0.74333 -1.51146,2.27832 -2.96409,3.01021 -1.81014,0.91204 -3.01131,1.12087 -3.93591,0.68427 z m -271.64999,-12.93023 c -1.38526,-0.61973 -2.78001,-2.13118 -3.13015,-3.39206 -0.44126,-1.58901 -0.41202,-1.75146 0.38019,-2.11241 0.58332,-0.26578 0.94023,-0.16947 2.14054,0.57763 1.74221,1.08437 2.90891,0.98608 4.32176,-0.36412 1.78295,-1.70388 1.01144,-3.43952 -2.20824,-4.96777 -3.4209,-1.62376 -4.7708,-3.62337 -3.7428,-5.5442 0.46657,-0.8718 3.62881,-2.3431 5.51155,-2.56438 2.06834,-0.2431 3.47715,0.25339 3.47715,1.22539 0,0.87378 -0.8382,1.60509 -2.11968,1.84938 -1.18181,0.22529 -2.68275,0.92292 -2.6752,1.24342 0.003,0.11952 0.74225,0.53638 1.6432,0.92637 3.87724,1.67832 6.36315,6.59877 4.70847,9.31966 -0.63863,1.05014 -3.19716,3.15421 -4.43829,3.64993 -1.34071,0.53549 -2.87785,0.59635 -3.8685,0.15316 z m 198.8571,-0.19462 c -1.341,-0.5092 -1.51932,-1.20463 -1.36989,-5.34277 0.0879,-2.43477 0.0273,-3.93101 -0.16428,-4.04936 -0.16704,-0.10324 -1.22163,-0.3177 -2.34351,-0.47658 -1.71516,-0.2429 -2.19354,-0.4464 -3.00582,-1.27868 -0.80583,-0.82569 -0.93975,-1.15505 -0.8076,-1.98639 0.20718,-1.30318 0.84321,-1.50851 3.834,-1.23773 1.32,0.1195 2.48442,0.13111 2.58762,0.0258 0.1032,-0.10532 0.41967,-1.54149 0.70326,-3.19149 0.79866,-4.6466 1.90077,-9.62959 2.38737,-10.79423 0.36162,-0.86549 0.5988,-1.05577 1.31598,-1.05577 1.04697,0 2.511,1.06679 2.41167,1.7573 -0.039,0.27099 0.0279,0.78495 0.14871,1.14215 0.13308,0.39354 -0.12909,2.16667 -0.66531,4.5 -1.05069,4.57183 -1.65231,8.37498 -1.39158,8.79688 0.10323,0.16702 0.35688,0.30367 0.56364,0.30367 1.27416,0 4.36041,2.37987 3.1242,2.40912 -0.22851,0.005 -0.17172,0.13368 0.13944,0.31491 0.28875,0.16818 0.525,0.47446 0.525,0.68061 0,0.50908 -1.98786,1.23237 -3.40665,1.23952 l -1.15665,0.006 -0.10848,3.28909 c -0.11967,3.62714 -0.51822,5.08581 -1.33152,4.87312 -0.28131,-0.0736 -0.69939,-0.0319 -0.9291,0.0927 -0.22968,0.12454 -0.70692,0.11658 -1.0605,-0.0177 z m -28.4571,-0.64733 c -3.22191,-2.29516 -3.92676,-3.80791 -3.64578,-7.8249 0.2616,-3.74044 1.82673,-11.07485 3.34281,-15.66497 0.95124,-2.88006 1.37055,-3.6251 2.22084,-3.94604 1.11804,-0.42201 1.68468,-0.0802 2.4324,1.46745 0.65442,1.35451 0.74676,2.05361 0.32934,2.49359 -0.3066,0.32318 -1.48674,4.59498 -2.4408,8.835 -1.86567,8.29158 -1.89555,8.95325 -0.46881,10.38 0.561,0.561 1.23126,1.02 1.48944,1.02 0.549,0 1.20465,1.07271 0.92862,1.51934 -0.10434,0.16882 -0.024,0.50679 0.17886,0.75105 0.45351,0.54646 0.2787,0.73394 -1.14753,1.23069 -1.53951,0.53621 -2.17203,0.48489 -3.21939,-0.26121 z m 153.8558,-0.42115 c -0.90927,-1.19209 -0.90012,-1.08026 -0.57591,-7.057 l 0.20553,-3.78828 -1.36773,-0.18672 c -0.75222,-0.1027 -1.96458,-0.26795 -2.69409,-0.36724 -0.79719,-0.1085 -1.56141,-0.43765 -1.9155,-0.825 -0.72723,-0.79553 -1.12863,-1.99448 -0.66777,-1.99448 0.23169,0 0.23964,-0.17028 0.0264,-0.5685 -0.21705,-0.40556 -0.19857,-0.65299 0.0644,-0.86328 0.70572,-0.56425 1.58529,-0.6436 4.2687,-0.3851 1.485,0.14306 2.80434,0.16179 2.93187,0.0416 0.1275,-0.12015 0.63669,-2.43613 1.13151,-5.14661 0.86058,-4.71396 1.59222,-7.49398 2.18526,-8.30314 0.29955,-0.40873 1.64709,-0.49814 2.19162,-0.14541 0.71253,0.46157 1.22175,2.7396 0.94149,4.21189 -0.14748,0.77468 -0.45522,2.62352 -0.68388,4.10852 -0.22866,1.485 -0.55404,3.49552 -0.72306,4.46782 -0.16902,0.9723 -0.24216,1.87323 -0.16251,2.00206 0.0796,0.12884 0.81888,0.45815 1.64277,0.73181 1.58412,0.52615 3.19494,1.87302 3.19494,2.67139 0,0.26231 -0.11508,0.47692 -0.25572,0.47692 -0.14064,0 -0.17847,0.30778 -0.0841,0.68397 0.14391,0.57334 0,0.74572 -0.8844,1.06584 -0.81234,0.29375 -1.20645,0.30139 -1.70775,0.0331 -1.03416,-0.55346 -2.34603,-0.86129 -2.51379,-0.58985 -0.0846,0.13687 -0.22494,1.64567 -0.31191,3.35289 -0.27357,5.36998 -0.41904,6.33772 -1.03974,6.91597 -0.97728,0.91049 -2.25345,0.69364 -3.19683,-0.5432 z m -457.30579,0.49517 c -0.5775,-0.11427 -1.7925,-0.6313 -2.7,-1.14894 -2.744,-1.56518 -4.3521,-4.65438 -4.012,-7.70727 0.3003,-2.69644 1.2817,-3.95194 4.3305,-5.54013 3.1802,-1.65661 4.5911,-1.53063 7.2342,0.64591 1.9775,1.6284 2.7345,3.31246 2.5287,5.62525 -0.1003,1.12751 -0.047,1.81129 0.1423,1.81129 0.1867,0 0.2256,0.43311 0.1012,1.125 -0.6503,3.6158 -4.0123,5.90375 -7.6249,5.18889 z m 2.1655,-4.28889 c 0.2641,-0.20625 0.7819,-1.09031 1.1506,-1.96457 0.6109,-1.44872 0.6346,-1.69775 0.2674,-2.81047 -0.821,-2.48749 -1.8296,-3.10692 -3.5829,-2.20028 -1.9154,0.9905 -2.8254,3.19344 -2.2307,5.40032 0.3815,1.41594 3.2727,2.45189 4.3956,1.575 z m 312.9076,3.98223 c -2.8602,-1.29827 -5.17311,-4.00549 -5.17311,-6.05505 0,-2.97778 2.30655,-6.15526 4.95159,-6.82129 2.42451,-0.6105 5.06472,0.54488 6.16254,2.69679 1.20711,2.36616 1.87257,5.37232 1.18923,5.37232 -0.16314,0 -0.2967,0.30375 -0.29676,0.675 0,2.63859 -0.7902,3.80115 -3.0066,4.42575 -1.51725,0.42758 -2.38485,0.36103 -3.82689,-0.29352 z m 2.53254,-4.85952 c 0.85938,-0.80735 0.88905,-1.77851 0.0768,-2.5136 -0.77748,-0.70359 -1.39449,-0.37664 -2.23245,1.18295 -0.59334,1.1043 -0.59352,1.12151 -0.0177,1.54982 0.80544,0.59904 1.36215,0.5429 2.17332,-0.21917 z m 107.50667,5.2326 c -1.18365,-0.22218 -3.63903,-1.25847 -4.59546,-1.93951 -0.50631,-0.36052 -1.30617,-1.51293 -1.87737,-2.70478 -1.51668,-3.16478 -1.12746,-4.64637 2.03985,-7.76481 4.17513,-4.11075 7.45665,-5.22822 9.95679,-3.39063 0.79617,0.58518 0.86817,0.80718 0.99993,3.08326 0.11715,2.02356 0.0527,2.55135 -0.36843,3.01667 -0.80427,0.8887 -3.1293,1.73191 -5.41764,1.9648 -2.15277,0.21909 -2.85,0.5211 -2.85,1.23451 0,1.03556 2.71737,1.82106 6.75165,1.95166 1.07442,0.0348 2.06871,0.21068 2.20956,0.39088 0.41484,0.5308 0.6759,1.97572 0.42756,2.36644 -0.12627,0.19866 -0.23166,0.49438 -0.23418,0.65716 -0.009,0.55203 -1.49622,0.9816 -3.90459,1.12746 -1.32,0.0799 -2.73195,0.083 -3.13767,0.007 z m -187.50761,-0.79489 c -0.73479,-0.39302 -1.83615,-1.13452 -2.44749,-1.64776 -1.12974,-0.94847 -2.65722,-3.70851 -2.65722,-4.80138 0,-1.52377 -1.21245,-0.58781 -3.0957,2.38972 -0.58302,0.9218 -1.40751,1.90366 -1.83216,2.18191 -0.71217,0.46662 -0.82938,0.46842 -1.50894,0.0231 -0.40524,-0.26552 -0.87774,-0.39567 -1.05,-0.28921 -0.17226,0.10646 -0.3132,-0.0169 -0.3132,-0.27414 0,-0.25724 -0.19422,-0.4677 -0.43161,-0.4677 -1.02045,0 -0.98238,-6.71711 0.0936,-16.52051 0.70656,-6.43726 0.87441,-7.04004 2.02164,-7.25935 1.11534,-0.21321 1.32726,-0.0904 2.32596,1.34742 0.84141,1.21144 0.85512,1.29513 0.64911,3.96002 -0.11574,1.49733 -0.25431,3.12742 -0.30792,3.62242 -0.0536,0.495 -0.19038,2.0968 -0.30393,3.55957 l -0.20646,2.65957 0.92979,-0.54925 c 0.51141,-0.30209 0.92982,-0.6488 0.92982,-0.77047 0,-0.26548 1.98516,-0.8454 2.90199,-0.84775 0.88797,-0.002 2.42787,1.34972 2.94387,2.58468 0.23313,0.55799 0.56628,1.78484 0.74034,2.72633 0.34002,1.83929 1.36134,3.64589 2.79825,4.94967 0.49239,0.44679 0.93246,1.12179 0.97794,1.5 0.0454,0.37821 0.16662,0.89694 0.26922,1.15274 0.13179,0.32846 -0.12753,0.61489 -0.88269,0.975 -0.58809,0.28045 -1.10052,0.50991 -1.13874,0.50991 -0.0382,0 -0.67065,-0.32157 -1.40547,-0.71459 z m -129.244,0.11721 c -2.3319,-0.99415 -3.5384,-2.90324 -3.8021,-6.01631 -0.2255,-2.66178 0.381,-5.45147 2.7066,-12.44926 1.2087,-3.63712 2.2894,-7.30427 2.4015,-8.14922 0.1622,-1.22309 0.3342,-1.57056 0.8435,-1.70441 0.3519,-0.0925 0.6848,-0.0366 0.7398,0.12422 0.055,0.16079 0.4228,0.29235 0.8173,0.29235 0.8717,0 1.6327,1.29858 1.6327,2.78626 0,1.24712 -1.3186,5.69919 -3.1206,10.53659 -1.9219,5.15915 -2.4082,9.66269 -1.1469,10.61978 0.3771,0.28612 1.0058,0.33196 2.3175,0.16896 3.5301,-0.43867 4.1844,-0.14272 3.3029,1.49404 -0.9448,1.75434 -4.8339,3.08922 -6.6922,2.297 z m 331.28928,0.0111 c -1.57494,-0.37255 -3.57174,-1.39741 -4.4709,-2.29468 -1.37319,-1.37034 -2.57913,-3.45254 -2.57886,-4.45281 2.7e-4,-1.08804 1.4913,-4.32135 2.29644,-4.97991 3.65283,-2.98774 7.37523,-4.32708 9.52722,-3.42792 0.91788,0.38351 1.02639,0.56007 1.14171,1.85768 0.17046,1.91775 0.0376,2.18389 -1.09035,2.18389 -0.56565,0 -1.67745,0.43168 -2.70426,1.05 -0.95904,0.5775 -1.81038,1.05 -1.89189,1.05 -0.38187,0 -2.18691,2.28796 -2.11197,2.67704 0.0466,0.24226 0.55212,0.71338 1.12323,1.04694 0.85869,0.5015 1.6545,0.61894 4.59774,0.67855 3.94551,0.0799 4.83381,0.24706 4.59669,0.86496 -0.0872,0.22731 -0.0204,0.49877 0.14874,0.60325 0.16905,0.10447 0.22833,0.3959 0.13173,0.64763 -0.0966,0.25172 -0.0366,0.62515 0.13326,0.82985 0.45834,0.55228 -0.27651,1.03035 -2.30655,1.50053 -1.86531,0.43202 -5.07132,0.51288 -6.54198,0.165 z m -192.93722,-1.05155 c -1.91316,-0.96854 -3.57378,-2.55542 -4.19106,-4.00493 -0.75687,-1.77727 -0.45471,-6.04376 0.58098,-8.20319 0.95274,-1.98652 2.83392,-3.75872 4.27728,-4.0295 2.22051,-0.41657 4.88322,0.71578 6.87972,2.92565 1.32099,1.46218 1.83171,2.61089 2.19786,4.9434 0.2415,1.53848 0.20214,1.85973 -0.31719,2.58954 -0.37836,0.53172 -1.07181,0.96127 -1.91661,1.18722 -0.72807,0.19473 -1.32375,0.46105 -1.32375,0.59183 0,0.13078 0.79446,0.23778 1.7655,0.23778 1.56399,0 1.82304,0.0878 2.26959,0.76934 0.33216,0.50695 0.44004,1.06099 0.31626,1.62447 -0.30213,1.37562 -1.80816,1.91453 -5.70135,2.04015 -3.06906,0.099 -3.40758,0.052 -4.83723,-0.67176 z m 4.31223,-8.75129 c 0.37125,-0.0995 0.675,-0.36218 0.675,-0.58376 0,-0.51048 -1.5447,-1.96163 -1.94775,-1.82977 -0.3486,0.11404 -1.65225,1.96584 -1.65225,2.34698 0,0.29267 1.91841,0.33631 2.925,0.0666 z m 39.6,8.85456 c -0.71649,-0.53455 -0.825,-0.82202 -0.825,-2.1854 0,-3.02131 1.18341,-8.12153 2.04306,-8.80507 1.22784,-0.97631 3.15,-0.11122 3.51069,1.58001 0.28119,1.31836 0.28545,1.27324 -0.39531,4.19499 -0.34599,1.485 -0.70908,3.32556 -0.80691,4.09013 -0.16107,1.25904 -0.26499,1.40756 -1.10217,1.575 -1.33095,0.26619 -1.50921,0.23313 -2.42436,-0.44966 z m -190.27499,0.0171 c -0.9648,-0.28229 -2.5423,-1.58598 -3.0785,-2.54405 -0.3019,-0.53949 -0.4079,-0.55287 -1.3248,-0.16731 -1.4089,0.59243 -3.7235,0.75265 -4.7472,0.32861 -1.3626,-0.56441 -3.8251,-3.34801 -4.0574,-4.58657 -0.2074,-1.10556 -0.071,-3.64477 0.2743,-5.09535 0.2789,-1.17266 1.8715,-3.67632 2.6661,-4.19136 1.128,-0.73112 2.9415,-0.85669 4.1391,-0.28661 1.0581,0.50361 3.8168,3.50777 5.4946,5.98332 0.8106,1.19602 0.8539,1.41325 0.7147,3.58276 -0.148,2.30706 -0.1471,2.31076 0.9068,3.44978 0.5802,0.62713 1.21,1.44489 1.3994,1.81724 0.3032,0.59578 0.2367,0.75798 -0.5546,1.352 -0.4945,0.37125 -0.9066,0.66282 -0.9158,0.64794 -0.01,-0.0149 -0.4217,-0.14556 -0.9167,-0.2904 z m -5.3984,-7.78513 c 0.4116,-0.65202 0.7484,-1.4269 0.7484,-1.72195 0,-0.53366 -2.1932,-3.42749 -2.7537,-3.63336 -0.4938,-0.18139 -1.2768,1.21419 -1.6582,2.95557 -0.5255,2.39894 -0.4738,2.94393 0.358,3.77569 0.7139,0.7139 0.7851,0.72589 1.6516,0.27782 0.4981,-0.25756 1.2423,-1.00175 1.6539,-1.65377 z m -166.1486,7.36277 c -0.2531,-0.2531 -0.6068,-0.46018 -0.786,-0.46018 -0.6106,0 -1.4783,-1.89184 -1.8335,-3.99777 -0.3887,-2.30469 -0.2597,-4.02328 0.6179,-8.22909 0.6978,-3.34403 2.282,-11.8602 2.8519,-15.33065 0.2264,-1.37913 0.4533,-2.54703 0.5042,-2.59534 0.051,-0.0483 0.6267,-0.13493 1.2796,-0.19249 1.7072,-0.15051 2.0229,0.57667 1.8427,4.24534 -0.2122,4.31914 -0.4166,6.22122 -0.7324,6.81317 -0.2746,0.51486 -1.0604,6.07471 -0.8833,6.25015 0.087,0.0866 9.6209,-0.80273 9.7642,-0.9108 0.1338,-0.101 2.7187,-11.5934 3.0779,-13.68466 l 0.3405,-1.98215 1.3255,0 c 0.729,0 1.4589,0.16074 1.6219,0.3572 0.1631,0.19645 0.4012,1.08506 0.5292,1.97468 0.2396,1.66473 -0.024,3.3894 -1.3884,9.0811 -0.3492,1.45677 -0.6349,3.10587 -0.6349,3.66466 0,0.99217 0.035,1.02063 1.4948,1.21427 1.5262,0.20246 2.2346,0.65598 1.863,1.19278 -0.6129,0.88551 -2.031,1.6296 -3.1057,1.6296 -1.5111,0 -1.7404,0.55114 -2.1075,5.06551 -0.2981,3.66635 -0.692,4.63872 -2.0183,4.98269 -0.5113,0.13258 -0.9076,0.004 -1.35,-0.43809 -0.5685,-0.56802 -0.6329,-1.01951 -0.6983,-4.89294 l -0.072,-4.26717 -1.4281,0.0404 c -0.7854,0.0222 -2.9396,0.21723 -4.7871,0.43337 l -3.3591,0.39299 -0.3266,1.36663 c -0.3768,1.57637 0.01,5.09992 0.7082,6.44494 0.3862,0.74438 0.3748,0.88345 -0.1122,1.37045 -0.8096,0.80965 -1.6694,0.99013 -2.1982,0.46142 z m 42.0393,-0.5421 c -0.6996,-0.61147 -1.2239,-1.41013 -1.4233,-2.16808 -0.4199,-1.5963 -0.4054,-5.47301 0.037,-9.96599 0.3557,-3.61128 0.3715,-3.6634 1.0563,-3.4915 0.3824,0.096 0.8808,0.0205 1.1075,-0.16761 0.3239,-0.2688 0.5802,-0.14248 1.1962,0.58962 1.0346,1.22961 1.2518,2.22246 0.8307,3.79707 -0.3807,1.42339 -0.4499,2.48841 -0.1618,2.48841 0.1018,0 0.7092,-0.54 1.3497,-1.2 0.9852,-1.01522 1.3538,-1.2 2.3936,-1.2 0.676,0 1.5894,0.21289 2.0299,0.4731 0.9082,0.53645 2.0254,2.10897 2.3132,3.25595 0.1065,0.42402 0.2631,0.77095 0.3482,0.77095 0.085,0 0.6934,-0.61203 1.3518,-1.36006 2.0117,-2.28536 3.9164,-2.8243 5.8389,-1.65208 1.1039,0.67307 1.6095,1.54929 2.3203,4.0212 0.2782,0.96748 0.839,2.26251 1.2462,2.87786 0.7338,1.10873 0.732,1.97882 -0.01,2.48349 -1.1938,0.81739 -3.7602,-0.79143 -4.8981,-3.07041 -0.4531,-0.9075 -0.869,-1.7175 -0.9243,-1.8 -0.055,-0.0825 -0.4287,0.255 -0.8297,0.75 -0.401,0.495 -0.9295,1.11382 -1.1744,1.37517 -0.245,0.26134 -0.4454,0.578 -0.4454,0.70368 0,0.12569 -0.2792,0.62062 -0.6204,1.09984 -1.2295,1.7267 -3.6502,0.83067 -5.3549,-1.98218 -0.5086,-0.83912 -0.9247,-1.69911 -0.9247,-1.91109 0,-0.89805 -0.8319,0.0169 -1.9648,2.1611 -2.2105,4.18353 -2.9301,4.6622 -4.6929,3.12156 z m 426.50768,0.48426 c -1.20738,-0.63539 -2.38158,-1.75503 -3.66045,-3.49037 -0.98676,-1.33896 -1.05096,-1.55982 -0.93189,-3.20595 0.17058,-2.3583 1.48281,-4.91313 3.19377,-6.21813 1.06467,-0.81204 1.56159,-0.98789 2.79162,-0.98789 1.80489,0 2.4597,0.31117 3.93969,1.87218 1.75101,1.84686 2.40507,3.56218 2.34504,6.15032 -0.0476,2.0542 -0.12342,2.28066 -1.28187,3.82972 -0.67719,0.90553 -1.63782,1.84922 -2.13468,2.0971 -1.16058,0.57898 -3.11268,0.55746 -4.26123,-0.047 z m 2.78913,-5.65814 c 0.55146,-1.13503 0.59781,-1.45412 0.28479,-1.9596 -0.5274,-0.85162 -1.43178,-0.61538 -2.2386,0.58476 -0.80901,1.20334 -0.84885,1.62425 -0.2139,2.25921 0.81918,0.81919 1.46883,0.55415 2.16771,-0.88437 z m -351.25971,5.17806 c -3.4439,-1.68921 -5.0794,-3.8992 -5.0794,-6.86354 0,-2.32508 0.7003,-4.11265 2.334,-5.95772 1.6082,-1.81639 2.759,-2.401 4.7261,-2.401 1.6338,0 2.1624,0.25029 3.6619,1.73396 2.8794,2.84889 3.6825,4.60439 2.6012,5.68572 -0.367,0.367 -0.4297,0.79394 -0.272,1.85357 0.1127,0.75721 0.3269,1.52514 0.4761,1.7065 0.3294,0.40078 -1.7337,3.71055 -2.762,4.43079 -1.0602,0.74256 -3.9856,0.64569 -5.6859,-0.18828 z m 4.2519,-5.17226 c 0.6195,-0.99 1.136,-2.15665 1.1476,-2.59256 0.025,-0.95273 -2.4445,-3.85744 -3.28,-3.85744 -0.6595,0 -1.9584,1.48297 -2.56,2.92285 -0.2414,0.57774 -0.4389,1.69341 -0.4389,2.47928 0,1.22312 0.1188,1.50942 0.825,1.98837 2.1922,1.48675 2.8815,1.33621 4.3063,-0.9405 z m 67.32299,5.62959 c -1.83489,-0.46454 -2.12689,-3.03198 -0.91064,-8.00703 0.86463,-3.53677 1.3884,-4.23589 2.88521,-3.85116 1.56472,0.40219 2.20017,2.00731 1.57509,3.9786 -0.0785,0.2475 -0.1558,0.5175 -0.17183,0.6 -0.016,0.0825 -0.15122,0.6225 -0.30042,1.2 -0.31611,1.22356 -0.46945,2.04788 -0.7221,3.88181 -0.15908,1.15482 -1.04848,2.46625 -1.60961,2.37341 -0.0825,-0.0136 -0.41806,-0.0927 -0.7457,-0.17563 z m 259.9093,-0.0257 c -0.71859,-0.30127 -2.00382,-1.93782 -2.55393,-3.2521 -0.86418,-2.06467 -0.28302,-8.11145 0.85095,-8.8534 0.21414,-0.14013 0.86673,-0.17887 1.45017,-0.0861 0.67236,0.10693 1.38639,-0.001 1.95,-0.29497 2.09307,-1.09141 4.61631,-0.0625 5.10744,2.08263 0.0378,0.165 0.0988,0.435 0.13575,0.6 0.16155,0.72273 -0.0629,1.01528 -0.92427,1.20446 -0.50613,0.11116 -0.99309,0.39189 -1.0821,0.62383 -0.089,0.23194 -0.41217,0.42171 -0.71814,0.42171 -0.62412,0 -0.90123,0.83424 -1.49457,4.49917 -0.45384,2.80329 -1.23351,3.67849 -2.7213,3.05475 z m -102.8636,-0.59174 c -1.6668,-1.1278 -1.6515,-1.0738 -1.62807,-5.74149 0.0144,-2.89457 0.24195,-5.78915 0.67338,-8.57068 0.35829,-2.31 0.65217,-4.41488 0.65307,-4.67751 0,-0.2978 -0.45003,-0.61283 -1.19838,-0.83705 -1.0974,-0.32878 -1.2,-0.44766 -1.2,-1.39023 0,-0.56689 0.25536,-1.45064 0.56751,-1.96388 1.22013,-2.00637 5.74161,-4.20957 8.53422,-4.15851 1.71789,0.0314 2.94096,0.5317 4.50939,1.84454 2.32026,1.94217 3.08358,5.66287 2.11941,10.33072 -0.26379,1.27712 -0.73857,2.82964 -1.05507,3.45003 -0.3165,0.62039 -0.57546,1.31686 -0.57546,1.5477 0,1.50712 -4.99749,5.00419 -7.15125,5.00419 -1.19325,0 -1.51239,0.62475 -1.33197,2.6075 0.13836,1.52022 -0.23709,2.56691 -0.96678,2.69527 -0.165,0.029 -0.5025,0.12345 -0.75,0.20982 -0.2475,0.0864 -0.7875,-0.0713 -1.2,-0.35042 z m 6.23328,-11.55051 c 2.00721,-2.08649 3.25998,-6.0032 2.75448,-8.61166 -0.14391,-0.7425 -0.26751,-1.44161 -0.27468,-1.55357 -0.0294,-0.45712 -0.99834,-1.14632 -1.6095,-1.14476 -1.05282,0.003 -2.80533,0.57179 -3.48228,1.1308 l -0.62673,0.51753 0.73206,1.78709 c 0.40263,0.98289 0.67179,1.88458 0.59814,2.00375 -0.23655,0.38275 -1.0245,6.91691 -0.86517,7.17469 0.26373,0.42674 1.80648,-0.29848 2.77368,-1.30387 z m -216.76357,11.45134 c -3.4448,-0.99412 -6.3618,-4.45253 -6.368,-7.54995 0,-1.05345 0.9486,-2.89667 1.856,-3.59838 0.3808,-0.29443 1.2323,-0.94798 1.8923,-1.45233 0.66,-0.50436 2.3257,-1.46208 3.7016,-2.12827 1.9618,-0.94988 2.8218,-1.20405 3.9851,-1.17784 1.834,0.0413 2.598,0.42917 2.8539,1.44886 0.2991,1.19161 -0.219,1.69242 -2.1683,2.09607 -1.9035,0.39415 -3.4007,1.07352 -4.9063,2.22625 -2.2009,1.68507 -2.6947,2.25087 -2.8766,3.29574 -0.1665,0.9571 -0.074,1.17184 0.8527,1.9858 1.3667,1.19998 3.1122,1.44732 6.8512,0.97083 2.3711,-0.30217 3.0205,-0.30026 3.3944,0.01 0.6265,0.51992 0.5819,0.97724 -0.191,1.95983 -1.0414,1.32389 -3.5045,2.2552 -5.8803,2.22332 -1.109,-0.0149 -2.4575,-0.15436 -2.9967,-0.30994 z m 295.40355,-0.52658 c -1.4046,-1.42214 -1.49352,-1.83728 -1.33881,-6.25147 0.1647,-4.69912 1.26729,-11.66497 2.26005,-14.27816 0.69,-1.81629 1.57905,-2.51431 2.73513,-2.14739 0.41982,0.13325 0.5997,-0.025 0.75834,-0.66736 0.51411,-2.08174 2.09964,-4.20825 3.78915,-5.08192 1.82859,-0.94561 4.55538,0.55683 5.69781,3.13946 0.97932,2.21384 0.74025,7.76945 -0.52071,12.10185 -0.73968,2.54135 -1.15317,3.05161 -4.00167,4.93788 -1.30026,0.86105 -1.9011,1.06493 -3.23007,1.09605 -1.6062,0.0376 -1.63719,0.0554 -1.9134,1.10143 -0.39234,1.48564 -0.61992,2.6452 -0.82557,4.20633 -0.0973,0.73872 -0.32466,1.48279 -0.5052,1.6535 -0.31398,0.29681 -1.94052,1.09521 -2.06745,1.0148 -0.0335,-0.0212 -0.4104,-0.39247 -0.8376,-0.825 z m 7.64622,-12.66602 c 1.29717,-1.02035 2.21973,-3.21782 2.58621,-6.16013 0.80631,-6.47337 -0.96723,-5.82178 -2.96607,1.08973 -1.23165,4.25879 -1.45122,5.7 -0.86844,5.7 0.24636,0 0.80808,-0.28332 1.2483,-0.6296 z m -289.01947,12.94982 c 0,-0.17613 -0.1868,-0.32022 -0.415,-0.32022 -0.9976,0 -1.027,-3.06819 -0.077,-8.0162 0.3872,-2.01642 0.8753,-3.87267 1.0847,-4.125 0.4202,-0.50629 1.5073,-0.62761 1.5073,-0.16821 0,0.15981 0.1872,0.21874 0.416,0.13094 0.2427,-0.0931 0.6934,0.2299 1.0817,0.77524 0.6913,0.97089 0.6894,0.85647 0.08,4.65323 -0.08,0.495 -0.1628,1.25864 -0.1851,1.69699 -0.022,0.43834 -0.1424,0.73412 -0.2667,0.65729 -0.1243,-0.0768 -0.2275,0.30702 -0.2293,0.85301 -0.01,1.97728 -0.3503,3.17068 -1.0057,3.49134 -1.115,0.54558 -1.991,0.70907 -1.991,0.37159 z m -127.35,-0.43791 c -3.4719,-1.09236 -5.25,-3.04752 -5.25,-5.7727 0,-2.75718 1.9051,-5.38218 4.954,-6.82595 2.1751,-1.02999 7.346,-0.93671 7.346,0.13252 0,0.13386 0.2808,0.33251 0.624,0.44143 0.7348,0.23324 2.1114,1.61225 2.5933,2.59795 0.1867,0.38194 0.4254,1.21448 0.5305,1.85009 0.105,0.63561 0.2676,1.07894 0.3614,0.98518 0.2518,-0.25179 1.223,1.08469 1.4524,1.99858 0.471,1.87681 -2.1831,4.02034 -5.8275,4.70639 -2.1525,0.4052 -5.303,0.35249 -6.7841,-0.11349 z m 6.9578,-3.95318 c 1.4027,-0.565 1.8455,-1.2083 1.0135,-1.47238 -0.333,-0.10567 -0.6971,-0.70614 -0.9277,-1.5295 -0.6347,-2.26703 -1.2649,-2.82725 -3.1803,-2.82725 -2.5445,0 -4.2686,1.18858 -4.8521,3.34511 -0.6204,2.29266 0.9458,3.35938 4.5888,3.12547 1.155,-0.0742 2.666,-0.36281 3.3578,-0.64145 z m 70.0974,2.63095 c -1.3447,-0.46016 -2.995,-1.21788 -3.6673,-1.68381 -1.4485,-1.00383 -2.7408,-3.06713 -2.7931,-4.45969 -0.046,-1.21596 0.7841,-2.56221 1.725,-2.79835 0.9728,-0.24417 1.3302,0.066 1.3302,1.15463 0,0.72889 0.3252,1.2509 1.4618,2.34641 1.5751,1.51826 2.5259,1.92451 5.2169,2.22913 2.1126,0.23916 3.585,-0.19632 4.1343,-1.22279 0.611,-1.14157 -0.099,-2.07086 -3.1664,-4.14193 -4.9024,-3.31054 -7.3222,-6.56783 -6.9417,-9.34426 0.313,-2.28326 2.5219,-4.71981 7.1359,-7.87122 1.659,-1.13318 4.8369,-1.88315 6.6075,-1.55938 2.0498,0.37484 3.6685,2.55186 2.9272,3.93694 -0.3067,0.57316 -0.9539,0.52754 -3.0573,-0.21555 l -1.4319,-0.50584 -1.9346,0.9524 c -1.1321,0.55733 -2.7369,1.73136 -3.8687,2.83029 -2.3221,2.25443 -2.6402,3.23998 -1.7087,5.29294 0.3369,0.7425 0.6155,1.24902 0.6191,1.12561 0.01,-0.29566 5.533,3.75993 7.007,5.1441 3.2395,3.04203 3.0569,6.45112 -0.4512,8.42278 -1.4966,0.84114 -2.0954,0.98489 -4.5992,1.10419 -1.6918,0.0806 -2.5752,-0.0626 -4.5448,-0.7366 z m 175.24479,0.0404 c -1.84928,-0.97711 -1.98912,-1.23721 -1.81895,-3.38322 0.0858,-1.08197 0.23419,-3.45222 0.32975,-5.26722 0.0956,-1.815 0.35727,-4.7175 0.58157,-6.45 0.22429,-1.7325 0.47926,-3.7575 0.5666,-4.5 l 0.15879,-1.35 -5.15888,0 c -5.06289,0 -5.19124,-0.0159 -6.89784,-0.8539 -1.16607,-0.57258 -1.71918,-1.01733 -1.67889,-1.35 0.033,-0.27285 -0.0501,-0.75187 -0.18479,-1.06448 -0.44802,-1.04002 0.59895,-1.46169 3.1265,-1.25918 1.22312,0.098 4.41835,0.0342 7.10051,-0.1418 7.72145,-0.50662 8.76119,-0.51316 12.57563,-0.0791 5.17077,0.58843 5.90565,0.71592 6.81009,1.18146 0.44556,0.22934 0.96972,0.41698 1.16481,0.41698 0.43734,0 1.4751,1.16106 1.4751,1.65034 0,0.19719 -0.54048,0.60226 -1.20108,0.90014 -1.03632,0.46732 -1.68444,0.51376 -4.725,0.3386 -1.93815,-0.11166 -3.72642,-0.22115 -3.97392,-0.24331 -0.2475,-0.0222 -1.50048,-0.019 -2.78442,0.007 -2.74052,0.0555 -3.17876,0.4766 -1.89279,1.81886 l 0.80074,0.83579 -0.31304,2.6713 c -0.49986,4.26557 -0.59708,5.44786 -0.77473,9.42131 -0.22368,5.00306 -0.31964,5.50206 -1.23396,6.41637 -0.90967,0.90969 -0.87646,0.90509 -2.0518,0.28407 z m -48.75,-8.80518 c -0.5775,-0.33111 -1.05172,-0.79347 -1.05382,-1.02747 -0.002,-0.23399 -0.10336,-0.52497 -0.225,-0.64662 -0.39145,-0.39144 -0.2412,-0.66605 0.75094,-1.37253 1.36799,-0.97409 5.17695,-1.46204 7.42788,-0.95155 3.99747,0.90658 4.5,1.09123 4.5,1.65345 0,0.3022 0.2025,0.54946 0.45,0.54946 0.72882,0 0.51594,0.78665 -0.375,1.38573 -0.67394,0.45316 -1.42925,0.5575 -4.125,0.56986 -1.815,0.008 -3.975,0.11109 -4.8,0.2284 -1.21772,0.17316 -1.69759,0.10001 -2.55,-0.38873 z m 136.275,-8.72978 c -0.53625,-0.34342 -0.975,-0.82161 -0.975,-1.06265 0,-0.24103 0.10179,-0.37532 0.22623,-0.29842 0.12444,0.0769 0.22569,-0.28148 0.225,-0.79641 0,-0.75038 0.16236,-0.99448 0.82284,-1.22969 0.68817,-0.24509 0.92565,-0.18442 1.4403,0.36799 0.33894,0.36381 0.54504,0.77668 0.45801,0.91749 -0.087,0.14081 0.1086,0.49749 0.4347,0.79261 0.84249,0.76244 0.73854,1.17041 -0.40338,1.58333 -1.23684,0.44725 -1.07004,0.46778 -2.2287,-0.27425 z m 119.41211,-1.09167 c -0.99153,-0.88953 -2.03004,-3.398 -1.5342,-3.70575 0.16125,-0.10007 0.26679,-0.37007 0.23457,-0.6 -0.13452,-0.96005 0.0482,-1.16806 1.02579,-1.16806 0.55728,0 1.15041,0.16875 1.31802,0.375 0.74232,0.91339 1.51458,2.61683 1.70955,3.7709 0.18201,1.07716 0.13743,1.2541 -0.31587,1.2541 -0.29025,0 -0.7509,0.20196 -1.02366,0.44881 -0.44499,0.40271 -0.59022,0.3642 -1.4142,-0.375 z m -288.57483,-0.29887 c -0.87296,-0.14633 -1.80629,-1.22993 -2.04914,-2.37908 -0.25916,-1.2263 0.56666,-1.76198 2.19345,-1.42283 0.60138,0.12538 1.19466,0.20524 1.31841,0.17746 0.23732,-0.0533 0.24442,-0.0329 0.40071,1.14951 0.23179,1.75368 -0.4852,2.70596 -1.86343,2.47494 z m -39.72237,-0.92103 c -1.0682,-0.47343 -1.8097,-1.22122 -2.1343,-2.15239 -0.3025,-0.86759 -0.2741,-1.04614 0.2241,-1.41118 0.7867,-0.57646 2.5311,-0.29245 3.1882,0.51908 0.6562,0.81027 0.6794,1.74679 0.065,2.62383 -0.4949,0.70656 -0.6139,0.74384 -1.3431,0.42066 z"
       id="path4201"
       inkscape:connector-curvature="0" />
  </g>
</svg>
